<?xml version='1.0' encoding='utf-8'?>
<svg xmlns="http://www.w3.org/2000/svg" viewBox="0 0 800 600" width="800" height="600"><rect x="0" y="0" width="800" height="600" fill="#F8FAFC" rx="8" /><text x="400" y="28" font-family="Arial" font-size="16" fill="#1E293B" text-anchor="middle" font-weight="700" text="CLS Cognitive Loop System — Architecture Overview" /><polygon points="400,48 530,63 530,103 400,118 270,103 270,63" fill="#FEF2F2" stroke="#DC2626" stroke-width="1.8" /><text x="400" y="76" font-family="Arial" font-size="10" fill="#991B1B" text-anchor="middle" font-weight="700" text="FUSE BOARD" /><text x="400" y="91" font-family="Arial" font-size="7.5" fill="#DC2626" text-anchor="middle" text="6 independent fuses | stdlib-only | cannot be modified by protected system" /><line x1="370" y1="118" x2="270" y2="155" stroke="#DC2626" stroke-width="1" stroke-dasharray="5,3" /><line x1="430" y1="118" x2="530" y2="155" stroke="#DC2626" stroke-width="1" stroke-dasharray="5,3" /><rect x="210" y="155" width="155" height="60" rx="6" fill="#EFF6FF" stroke="#2563EB" stroke-width="1.5" /><text x="287" y="178" font-family="Arial" font-size="10" fill="#1E40AF" text-anchor="middle" font-weight="700" text="1. Situational Awareness" /><text x="287" y="195" font-family="Arial" font-size="7" fill="#64748B" text-anchor="middle" text="Read context, match trajectory" /><rect x="435" y="155" width="155" height="60" rx="6" fill="#EFF6FF" stroke="#2563EB" stroke-width="1.5" /><text x="512" y="178" font-family="Arial" font-size="10" fill="#1E40AF" text-anchor="middle" font-weight="700" text="2. Task Execution" /><text x="512" y="195" font-family="Arial" font-size="7" fill="#64748B" text-anchor="middle" text="Scope, pre-flight, execute, cleanup" /><rect x="505" y="300" width="155" height="60" rx="6" fill="#EFF6FF" stroke="#2563EB" stroke-width="1.5" /><text x="582" y="323" font-family="Arial" font-size="10" fill="#1E40AF" text-anchor="middle" font-weight="700" text="3. Associative Learning" /><text x="582" y="340" font-family="Arial" font-size="7" fill="#64748B" text-anchor="middle" text="Match patterns, flag contradictions" /><rect x="505" y="445" width="155" height="60" rx="6" fill="#EFF6FF" stroke="#2563EB" stroke-width="1.5" /><text x="582" y="468" font-family="Arial" font-size="10" fill="#1E40AF" text-anchor="middle" font-weight="700" text="4. Abstract Generalization" /><text x="582" y="485" font-family="Arial" font-size="7" fill="#64748B" text-anchor="middle" text="Distill patterns, update registry" /><rect x="140" y="445" width="155" height="60" rx="6" fill="#EFF6FF" stroke="#2563EB" stroke-width="1.5" /><text x="217" y="468" font-family="Arial" font-size="10" fill="#1E40AF" text-anchor="middle" font-weight="700" text="5. Context Persistence" /><text x="217" y="485" font-family="Arial" font-size="7" fill="#64748B" text-anchor="middle" text="Checkpoint, focus, cross-session" /><rect x="140" y="300" width="155" height="60" rx="6" fill="#EFF6FF" stroke="#2563EB" stroke-width="1.5" /><text x="217" y="323" font-family="Arial" font-size="10" fill="#1E40AF" text-anchor="middle" font-weight="700" text="6. Trajectory Update" /><text x="217" y="340" font-family="Arial" font-size="7" fill="#64748B" text-anchor="middle" text="Record delQ, delP, close loop" /><line x1="365" y1="185" x2="433" y2="185" stroke="#2563EB" stroke-width="1.5" /><line x1="560" y1="215" x2="560" y2="298" stroke="#2563EB" stroke-width="1.5" /><line x1="582" y1="360" x2="582" y2="443" stroke="#2563EB" stroke-width="1.5" /><line x1="505" y1="488" x2="297" y2="488" stroke="#2563EB" stroke-width="1.5" /><line x1="217" y1="445" x2="217" y2="362" stroke="#2563EB" stroke-width="1.5" /><path d="M200,300 C120,300 120,185 208,185" stroke="#2563EB" stroke-width="1.5" stroke-dasharray="6,3" fill="none" /><text x="165" y="248" font-family="Arial" font-size="7" fill="#64748B" text-anchor="middle" text="LOOP" /><polygon points="680,230 740,185 800,230 740,275" fill="#F0FDF4" stroke="#16A34A" stroke-width="1.5" /><text x="740" y="222" font-family="Arial" font-size="8" fill="#166534" text-anchor="middle" font-weight="700" text="DUAL-AI" /><text x="740" y="238" font-family="Arial" font-size="8" fill="#166534" text-anchor="middle" font-weight="700" text="GATE" /><text x="740" y="255" font-family="Arial" font-size="6.5" fill="#16A34A" text-anchor="middle" text="DS to Qwen" /><line x1="680" y1="230" x2="590" y2="200" stroke="#16A34A" stroke-width="1.2" stroke-dasharray="4,2" /><rect x="670" y="355" width="120" height="55" rx="8" fill="#FFF7ED" stroke="#EA580C" stroke-width="1.5" /><text x="730" y="376" font-family="Arial" font-size="8.5" fill="#9A3412" text-anchor="middle" font-weight="700" text="SYMBOLIC" /><text x="730" y="392" font-family="Arial" font-size="8.5" fill="#9A3412" text-anchor="middle" font-weight="700" text="DYNAMICS" /><text x="730" y="407" font-family="Arial" font-size="6" fill="#EA580C" text-anchor="middle" text="3 numbers + 1 word" /><circle cx="80" cy="300" r="42" fill="#F0FDFA" stroke="#0D9488" stroke-width="1.5" /><text x="80" y="293" font-family="Arial" font-size="7.5" fill="#0F766E" text-anchor="middle" font-weight="700" text="CROSS-" /><text x="80" y="307" font-family="Arial" font-size="7.5" fill="#0F766E" text-anchor="middle" font-weight="700" text="WINDOW" /><text x="80" y="321" font-family="Arial" font-size="6" fill="#0D9488" text-anchor="middle" text="COORD" /><rect x="55" y="525" width="110" height="45" rx="6" fill="#F5F3FF" stroke="#7C3AED" stroke-width="1.2" /><text x="110" y="546" font-family="Arial" font-size="8" fill="#5B21B6" text-anchor="middle" font-weight="700" text="FACT" /><text x="110" y="561" font-family="Arial" font-size="8" fill="#5B21B6" text-anchor="middle" font-weight="700" text="ANCHORING" /><rect x="25" y="578" width="750" height="18" rx="3" fill="#F1F5F9" stroke="#E2E8F0" stroke-width="0.5" /><rect x="33" y="582" width="10" height="10" rx="2" fill="#EFF6FF" stroke="#2563EB" stroke-width="1" /><text x="47" y="591" font-family="Arial" font-size="6.5" fill="#64748B" text-anchor="middle" text="6-Step Cycle" /><polygon points="130,587 137,582 144,587 137,592" fill="#F0FDF4" stroke="#16A34A" stroke-width="0.8" /><text x="148" y="591" font-family="Arial" font-size="6.5" fill="#64748B" text-anchor="middle" text="Dual-AI Gate" /><rect x="230" y="582" width="10" height="10" rx="2" fill="#FEF2F2" stroke="#DC2626" stroke-width="1" /><text x="244" y="591" font-family="Arial" font-size="6.5" fill="#64748B" text-anchor="middle" text="Fuse Board" /><rect x="325" y="582" width="10" height="10" rx="2" fill="#FFF7ED" stroke="#EA580C" stroke-width="1" /><text x="339" y="591" font-family="Arial" font-size="6.5" fill="#64748B" text-anchor="middle" text="Symbolic Dynamics" /><circle cx="442" cy="587" r="5" fill="#F0FDFA" stroke="#0D9488" stroke-width="1" /><text x="452" y="591" font-family="Arial" font-size="6.5" fill="#64748B" text-anchor="middle" text="Cross-Window" /><rect x="539" y="582" width="10" height="10" rx="2" fill="#F5F3FF" stroke="#7C3AED" stroke-width="1" /><text x="553" y="591" font-family="Arial" font-size="6.5" fill="#64748B" text-anchor="middle" text="Fact Anchoring" /></svg>